<?xml version="1.0" encoding="UTF-8"?><svg xmlns="http://www.w3.org/2000/svg" xmlns:xlink="http://www.w3.org/1999/xlink" clip-rule="evenodd" stroke-miterlimit="4.00" viewBox="0 0 960 540"><desc>SVG generated by Keynote</desc><defs></defs><g transform="matrix(1.00, 0.00, -0.00, -1.00, 0.0, 540.0)"><path d="M 0.0 540.0 L 960.0 540.0 L 960.0 0.0 L 0.0 0.0 Z M 0.0 540.0 " fill="#FFFFFF"></path><text xml:space="preserve" font-family="Helvetica-Bold" font-weight="bold" font-size="100.0" fill="#0BA3F3" transform="matrix(1.00, 0.00, -0.00, -1.00, 275.0, 205.0)">T</text><text xml:space="preserve" font-family="Helvetica-Bold" font-weight="bold" font-size="100.0" fill="#0BA3F3" transform="matrix(1.00, 0.00, -0.00, -1.00, 336.1, 205.0)">H</text><text xml:space="preserve" font-family="Helvetica-Bold" font-weight="bold" font-size="100.0" fill="#0BA3F3" transform="matrix(1.00, 0.00, -0.00, -1.00, 408.3, 205.0)">A</text><text xml:space="preserve" font-family="Helvetica-Bold" font-weight="bold" font-size="100.0" fill="#0BA3F3" transform="matrix(1.00, 0.00, -0.00, -1.00, 480.5, 205.0)">N</text><text xml:space="preserve" font-family="Helvetica-Bold" font-weight="bold" font-size="100.0" fill="#0BA3F3" transform="matrix(1.00, 0.00, -0.00, -1.00, 552.7, 205.0)">K</text><text xml:space="preserve" font-family="Helvetica-Bold" font-weight="bold" font-size="100.0" fill="#0BA3F3" transform="matrix(1.00, 0.00, -0.00, -1.00, 624.9, 205.0)">S</text><g><clipPath id="clip-8"><path d="M 479.0 159.1 L 528.5 159.1 L 528.5 165.2 L 479.0 165.2 Z M 479.0 159.1 "></path></clipPath><g clip-path="url(#clip-8)"><path d="M 480.0 164.2 L 527.5 164.2 L 527.5 160.1 L 480.0 160.1 Z M 480.0 164.2 " fill="#ED1B24"></path></g></g><g><clipPath id="clip-9"><path d="M 431.8 159.1 L 481.4 159.1 L 481.4 165.2 L 431.8 165.2 Z M 431.8 159.1 "></path></clipPath><g clip-path="url(#clip-9)"><path d="M 432.8 164.2 L 480.4 164.2 L 480.4 160.1 L 432.8 160.1 Z M 432.8 164.2 " fill="#0BABFF"></path></g></g><image xlink:href="../../D2CB7575-348A-4CDF-BBB3-7A3505D61323/assets/746D6D544551559E9AC3A1D4ACB689BE.jpeg" width="960.00" height="540.00" transform="matrix(1.00, 0.00, -0.00, -1.00, 0.0, 540.0)"></image><text xml:space="preserve" font-family="Helvetica-Bold" font-weight="bold" font-size="80.0" fill="#0BABFF" transform="matrix(1.00, 0.00, -0.00, -1.00, 313.0, 260.0)">T</text><text xml:space="preserve" font-family="Helvetica-Bold" font-weight="bold" font-size="80.0" fill="#0BABFF" transform="matrix(1.00, 0.00, -0.00, -1.00, 361.9, 260.0)">H</text><text xml:space="preserve" font-family="Helvetica-Bold" font-weight="bold" font-size="80.0" fill="#0BABFF" transform="matrix(1.00, 0.00, -0.00, -1.00, 419.6, 260.0)">A</text><text xml:space="preserve" font-family="Helvetica-Bold" font-weight="bold" font-size="80.0" fill="#0BABFF" transform="matrix(1.00, 0.00, -0.00, -1.00, 477.4, 260.0)">N</text><text xml:space="preserve" font-family="Helvetica-Bold" font-weight="bold" font-size="80.0" fill="#0BABFF" transform="matrix(1.00, 0.00, -0.00, -1.00, 535.1, 260.0)">K</text><text xml:space="preserve" font-family="Helvetica-Bold" font-weight="bold" font-size="80.0" fill="#0BABFF" transform="matrix(1.00, 0.00, -0.00, -1.00, 592.9, 260.0)">S</text></g></svg>